<?xml version="1.0" encoding="UTF-8"?>
<svg version="1.1" xmlns="http://www.w3.org/2000/svg" width="1024" height="1024">
<path d="M0 0 C1.30119781 0.00007553 2.60239563 0.00015106 3.94302368 0.00022888 C5.36875445 0.00533592 6.79448484 0.01055192 8.22021484 0.01586914 C9.67467195 0.01773392 11.12912969 0.01915754 12.58358765 0.02015686 C16.4140801 0.02397734 20.24453472 0.03380363 24.07501221 0.04486084 C27.98278288 0.05508504 31.89055966 0.05965665 35.79833984 0.06469727 C43.46762794 0.07542631 51.13688484 0.09249711 58.80615234 0.11352539 C59.52132805 106.22084133 59.93679477 212.32262992 59.4993051 383.7240137 C59.44798744 400.54532563 59.4035883 417.36664533 59.36376953 434.18798828 C59.31642037 454.18691695 59.26600809 474.1858331 59.20994413 494.18473941 C59.20401248 496.30127354 59.19808114 498.41780768 59.19215012 500.53434181 C59.18777254 502.09343203 59.18777254 502.09343203 59.18330652 503.68401903 C59.16309309 510.94794417 59.1449796 518.21187276 59.12764359 525.47580528 C59.10673991 534.19522373 59.08223759 542.91462315 59.05299713 551.63401779 C59.03822976 556.06070961 59.02506944 560.48739085 59.01619148 564.91409874 C59.00804658 568.95076053 58.9953655 572.9873805 58.97890632 577.02401672 C58.97375065 578.4878786 58.97030504 579.95174762 58.96866913 581.41561767 C58.96621526 583.38971293 58.95712361 585.36379673 58.94761086 587.3378706 C58.94441074 588.43723641 58.94121063 589.53660221 58.93791354 590.66928214 C58.80615234 593.11352539 58.80615234 593.11352539 57.80615234 594.11352539 C55.23883962 594.21373247 52.69838354 594.24791361 50.13050842 594.24050903 C49.31217466 594.24207079 48.4938409 594.24363256 47.65070915 594.24524164 C44.87055592 594.24927195 42.09045649 594.24605614 39.31030273 594.24291992 C37.30878639 594.24424994 35.3072703 594.24600267 33.30575466 594.24814415 C27.76574057 594.25269804 22.22574443 594.25078316 16.68572998 594.24772453 C11.92162682 594.24585413 7.15752764 594.24755997 2.39342463 594.24928737 C-12.7099236 594.25471615 -27.81325794 594.24915671 -42.91660339 594.2414427 C-49.79259504 594.23801917 -56.66858688 594.2361811 -63.54457911 594.23438098 C-140.67273362 594.21368303 -217.80094759 594.10532601 -331.00875666 593.78694923 C-342.90832548 593.7511247 -354.80789986 593.72038431 -366.70748901 593.69219971 C-380.28400064 593.65997155 -393.86046874 593.62036784 -407.43692911 593.57093596 C-414.40412179 593.54572455 -421.37128993 593.52358084 -428.33851624 593.51014709 C-434.72930671 593.49781161 -441.12001092 593.47556978 -447.51074612 593.44613433 C-449.83665673 593.43704322 -452.1625835 593.43137213 -454.48851097 593.4293139 C-457.63348521 593.42602062 -460.77816546 593.41063951 -463.92308044 593.39199829 C-464.84462071 593.39393299 -465.76616098 593.39586768 -466.71562672 593.397861 C-472.96553968 593.34183337 -472.96553968 593.34183337 -475.19384766 591.11352539 C-474.86384766 590.78352539 -474.53384766 590.45352539 -474.19384766 590.11352539 C-474.09333598 587.37588071 -474.05768717 584.66343469 -474.06445312 581.92529297 C-474.06270081 581.06671692 -474.06094849 580.20814087 -474.05914307 579.32354736 C-474.05472099 576.46836357 -474.05766507 573.61324113 -474.06103516 570.75805664 C-474.06036191 568.77845752 -474.05939171 566.79885848 -474.05813599 564.81925964 C-474.05665828 560.66042294 -474.05881475 556.50160766 -474.06347656 552.34277344 C-474.06915535 547.01749101 -474.06590708 541.69225919 -474.0599041 536.36697865 C-474.05628459 532.27399822 -474.05744379 528.18102972 -474.06003189 524.08804893 C-474.06069828 522.12529176 -474.05988281 520.1625335 -474.05755234 518.1997776 C-474.05500512 515.4493996 -474.05889643 512.69910247 -474.06445312 509.94873047 C-474.06242889 509.13965744 -474.06040466 508.33058441 -474.05831909 507.49699402 C-474.07418707 503.24465883 -474.45709971 499.31360785 -475.19384766 495.11352539 C-474.8804857 492.77742611 -474.54425756 490.44435538 -474.19384766 488.11352539 C-474.06510028 484.68571752 -474.10062053 481.26192992 -474.13134766 477.83227539 C-474.13513428 476.85995972 -474.1389209 475.88764404 -474.14282227 474.88586426 C-474.15497769 471.79503827 -474.1735992 468.7043083 -474.19384766 465.61352539 C-474.2205303 461.54061098 -474.24048574 457.46774475 -474.25634766 453.39477539 C-474.264646 452.4685437 -474.27294434 451.54231201 -474.28149414 450.5880127 C-474.33033422 437.60905863 -474.33033422 437.60905863 -471.69775391 434.14477539 C-471.05708984 433.63946289 -470.41642578 433.13415039 -469.75634766 432.61352539 C-469.02287109 432.02829102 -468.28939453 431.44305664 -467.53369141 430.84008789 C-464.47982778 428.58665263 -461.39996745 426.38632102 -458.26806641 424.24243164 C-454.34721372 421.5272287 -450.4913797 418.72672995 -446.63134766 415.92602539 C-440.53502606 411.5095564 -434.41333681 407.13251641 -428.25634766 402.80102539 C-422.77120763 398.94201095 -417.31863133 395.04495504 -411.90478516 391.08618164 C-408.82731252 388.84681034 -405.73096832 386.63455421 -402.63134766 384.42602539 C-397.22186388 380.56981164 -391.82835903 376.69203113 -386.44384766 372.80102539 C-385.68716797 372.25430176 -384.93048828 371.70757813 -384.15087891 371.14428711 C-380.31331821 368.37064474 -376.47740285 365.59474813 -372.64306641 362.81665039 C-364.65964324 357.03617571 -356.64736146 351.30180925 -348.5859375 345.63061523 C-341.17037708 340.40667738 -333.82291583 335.0897795 -326.47753906 329.76782227 C-315.63676165 321.91480669 -304.78063518 314.08406854 -293.87939453 306.31518555 C-290.98270431 304.25007702 -288.0883964 302.18163389 -285.19384766 300.11352539 C-281.74183503 297.64711792 -278.28946309 295.18122915 -274.83447266 292.71899414 C-263.73274362 284.8041106 -252.68395392 276.81612176 -241.64306641 268.81665039 C-231.54635727 261.50572948 -221.39080528 254.28380774 -211.19384766 247.11352539 C-202.79105561 241.20140899 -194.39659535 235.28521865 -186.10400391 229.21899414 C-182.46891581 226.58904449 -178.80101652 224.00740186 -175.13134766 221.42602539 C-169.12107504 217.1973693 -163.14440348 212.92579324 -157.19384766 208.61352539 C-150.69328694 203.90308571 -144.15520843 199.25054902 -137.58837891 194.63305664 C-132.42817874 190.99897852 -127.30463894 187.31670215 -122.19384766 183.61352539 C-116.13467285 179.2247783 -110.05493316 174.86724662 -103.94384766 170.55102539 C-103.25291016 170.0624707 -102.56197266 169.57391602 -101.85009766 169.07055664 C-99.96915202 167.74500834 -98.08252314 166.42802699 -96.19384766 165.11352539 C-95.12005859 164.36071289 -94.04626953 163.60790039 -92.93994141 162.83227539 C-89.59447503 160.73838463 -87.12774286 160.18774983 -83.19384766 160.11352539 C-81.69360352 161.45800781 -81.69360352 161.45800781 -80.19384766 163.11352539 C-79.11047699 163.94805648 -78.00606112 164.75577277 -76.88525391 165.53930664 C-75.90419678 166.22851196 -75.90419678 166.22851196 -74.90332031 166.93164062 C-74.19481934 167.4247876 -73.48631836 167.91793457 -72.75634766 168.42602539 C-72.0091748 168.94946533 -71.26200195 169.47290527 -70.4921875 170.01220703 C-68.88823733 171.13543581 -67.28338951 172.25738365 -65.67773438 173.37817383 C-63.21244544 175.10053217 -60.75142127 176.8288184 -58.29150391 178.55883789 C-49.20741719 184.94169362 -40.09229154 191.27454556 -30.89941406 197.5 C-26.68312832 200.36614806 -22.53043872 203.30540325 -18.41088867 206.30932617 C-17.43080338 207.02355743 -16.45071808 207.7377887 -15.44093323 208.47366333 C-14.32862587 209.28539505 -14.32862587 209.28539505 -13.19384766 210.11352539 C-13.19164782 208.54339675 -13.19164782 208.54339675 -13.18940353 206.94154835 C-13.15282943 181.48685014 -13.0934073 156.03228373 -13.00994492 130.57769489 C-12.9701138 118.26810293 -12.937742 105.95857527 -12.92285156 93.64892578 C-12.90985617 82.92144049 -12.88294556 72.19409646 -12.83923459 61.46669072 C-12.8165723 55.78513335 -12.80093983 50.10375052 -12.80196381 44.42214394 C-12.8027076 39.07625322 -12.78486985 33.73074902 -12.75267982 28.38495827 C-12.74414961 26.42136904 -12.74245196 24.4577366 -12.74804497 22.49413681 C-12.75465945 19.81544557 -12.736826 17.13799332 -12.71282959 14.45942688 C-12.72447022 13.29064301 -12.72447022 13.29064301 -12.73634601 12.09824735 C-12.65781818 7.15531707 -11.74211565 4.57415769 -8.19384766 1.11352539 C-5.40350505 -0.28164591 -3.12158793 -0.00602623 0 0 Z M-91.65087891 242.64086914 C-92.34439453 243.18106689 -93.03791016 243.72126465 -93.75244141 244.27783203 C-94.868125 245.15556274 -94.868125 245.15556274 -96.00634766 246.05102539 C-102.68315965 251.23157614 -109.44838662 256.15068375 -116.43505859 260.90649414 C-119.91888742 263.29739499 -123.36755467 265.73850477 -126.81884766 268.17602539 C-127.54885986 268.69156982 -128.27887207 269.20711426 -129.03100586 269.73828125 C-133.87164959 273.16335281 -138.6803429 276.62933158 -143.46728516 280.12915039 C-146.63407128 282.43391737 -149.81804435 284.71366333 -153.00634766 286.98852539 C-153.59859131 287.41109619 -154.19083496 287.83366699 -154.80102539 288.26904297 C-157.16443841 289.95463489 -159.52844856 291.63938789 -161.89257812 293.32397461 C-169.78989073 298.95239507 -177.66264942 304.61367757 -185.52099609 310.29638672 C-190.62518174 313.98569558 -195.74302357 317.65503283 -200.87231445 321.30932617 C-205.59951263 324.68058798 -210.3034246 328.08351296 -215.00634766 331.48852539 C-220.87516168 335.7359552 -226.76809173 339.94592291 -232.69384766 344.11352539 C-241.58456066 350.3679308 -250.39217628 356.73467969 -259.19384766 363.11352539 C-268.68853953 369.99462466 -278.20149754 376.84413238 -287.79296875 383.58984375 C-293.7870795 387.81154719 -299.73294408 392.09797241 -305.67211914 396.39648438 C-314.51047756 402.79323309 -323.38388619 409.13838777 -332.3046875 415.41967773 C-341.22395796 421.700424 -350.08103856 428.06294074 -358.91455078 434.46362305 C-361.20883218 436.12437216 -363.50558802 437.78163789 -365.80322266 439.43774414 C-373.64634861 445.09199387 -381.47785084 450.75981626 -389.24926758 456.51245117 C-391.91881633 458.48117193 -394.31653636 460.16820825 -397.359375 461.52441406 C-400.63542635 464.51687957 -400.64173878 465.10368913 -400.875 469.34106445 C-400.87405094 471.52065732 -400.84020027 473.70039479 -400.77978516 475.87915039 C-400.77129547 477.02768494 -400.76280579 478.17621948 -400.75405884 479.35955811 C-400.72046777 483.02850073 -400.64517012 486.6952469 -400.56884766 490.36352539 C-400.53875579 492.85047282 -400.51137864 495.3374547 -400.48681641 497.82446289 C-400.42065747 503.92156667 -400.32024938 510.01738914 -400.19384766 516.11352539 C-396.68276294 517.19413933 -393.44042538 517.23884982 -389.77822876 517.23936653 C-388.81073027 517.24154669 -388.81073027 517.24154669 -387.82368636 517.2437709 C-385.65359288 517.2474321 -383.48356958 517.24394391 -381.31347656 517.24050903 C-379.7454506 517.2416608 -378.17742492 517.2432487 -376.6093998 517.24523628 C-372.29355431 517.24942192 -367.97773085 517.24734233 -363.66188526 517.24425006 C-359.01016399 517.24199309 -354.35844658 517.24547706 -349.70672607 517.24822998 C-340.59122252 517.25268346 -331.47572718 517.25171307 -322.36022329 517.24881734 C-314.95379157 517.24656166 -307.54736215 517.2462515 -300.14093018 517.24734116 C-298.56151955 517.24757101 -298.56151955 517.24757101 -296.95020163 517.2478055 C-294.81137069 517.24812521 -292.67253975 517.24844943 -290.53370881 517.24877809 C-270.46400298 517.25163165 -250.39430172 517.2483478 -230.32459664 517.24297772 C-213.09286032 517.2385098 -195.86113073 517.23928577 -178.62939453 517.24389648 C-158.63294298 517.24924443 -138.63649543 517.25135697 -118.64004326 517.24828422 C-116.50895055 517.24796566 -114.37785784 517.24765129 -112.24676514 517.24734116 C-111.19814603 517.24718688 -110.14952693 517.2470326 -109.06913149 517.24687365 C-101.66907253 517.24600916 -94.26901609 517.24746992 -86.86895752 517.24982071 C-77.85439501 517.25262135 -68.83984122 517.25187484 -59.82527971 517.24653997 C-55.22334596 517.24390654 -50.62142675 517.24289186 -46.0194931 517.24618912 C-41.8103379 517.2491594 -37.60121077 517.24754694 -33.39205813 517.24221157 C-31.86587195 517.24109053 -30.33968342 517.24167167 -28.81349874 517.24408735 C-26.74545387 517.24711069 -24.67750627 517.24402665 -22.60946655 517.23936653 C-20.8834726 517.239123 -20.8834726 517.239123 -19.12261009 517.23887455 C-16.62639393 517.1320381 -14.56927329 516.84461514 -12.19384766 516.11352539 C-11.81978384 487.37609504 -11.53779298 458.63903042 -11.36485291 429.89965439 C-11.28241133 416.55464722 -11.17006016 403.21146714 -10.98681641 389.86743164 C-10.82714288 378.23424515 -10.72407128 366.60215525 -10.68843174 354.96790338 C-10.66760246 348.80914793 -10.61880423 342.65352896 -10.50216675 336.49578094 C-10.39315482 330.69333834 -10.36013562 324.89530741 -10.38412476 319.09193802 C-10.37974012 316.96815837 -10.34813247 314.84422399 -10.28656006 312.72133255 C-9.69442767 301.81744067 -9.69442767 301.81744067 -13.76822281 292.08697987 C-17.5414226 288.46066531 -21.75127523 285.72309965 -26.30618572 283.17900515 C-28.77254572 281.78688265 -31.05304457 280.17294801 -33.35009766 278.51977539 C-34.79609035 277.54815593 -36.24397227 276.57934142 -37.69384766 275.61352539 C-44.33012444 271.13128779 -50.80587261 266.49554777 -57.18139648 261.65063477 C-63.10276777 257.15470987 -69.12257082 252.80312299 -75.16870117 248.47680664 C-78.21124532 246.29428372 -81.19205952 244.11499258 -84.08837891 241.73852539 C-87.46975448 239.12878098 -88.57734929 240.22100963 -91.65087891 242.64086914 Z " fill="#3072B1" transform="translate(719.19384765625,207.886474609375)"/>
<path d="M0 0 C2.359375 1.07421875 2.359375 1.07421875 4.75 2.6875 C5.69617188 3.32300781 6.64234375 3.95851563 7.6171875 4.61328125 C13.31327157 8.60192685 18.93803413 12.69116111 24.55859375 16.78515625 C29.32357782 20.24865504 34.16115792 23.59450119 39.01953125 26.92578125 C42.99360362 29.69148561 46.88049848 32.56939352 50.7578125 35.46875 C53.00592975 37.15413202 53.00592975 37.15413202 56 38 C56 38.99 56 39.98 56 41 C55.01773437 41.53625 54.03546875 42.0725 53.0234375 42.625 C48.66493909 45.11806984 44.66543571 48.02731771 40.625 51 C39.02401891 52.1674644 37.42244243 53.33411268 35.8203125 54.5 C35.0149707 55.08652344 34.20962891 55.67304688 33.37988281 56.27734375 C29.77689911 58.88533031 26.14008422 61.44417804 22.5 64 C15.88206992 68.65267989 9.31453384 73.37111439 2.765625 78.12036133 C-3.34640281 82.54610524 -9.5060591 86.90169069 -15.6953125 91.21875 C-16.36304688 91.68667969 -17.03078125 92.15460938 -17.71875 92.63671875 C-18.30591797 93.04623779 -18.89308594 93.45575684 -19.49804688 93.87768555 C-21.15665844 95.06120897 -21.15665844 95.06120897 -23 97 C-24.46677564 97.93636586 -25.94880654 98.84888758 -27.4375 99.75 C-33.82066663 103.75940033 -39.82317123 108.2331209 -45.86889648 112.72998047 C-51.52019923 116.92777151 -57.23569086 120.98847404 -63.05078125 124.95703125 C-67.05667361 127.7319739 -70.9592924 130.63999561 -74.85546875 133.56640625 C-77 135 -77 135 -79 135 C-79 135.66 -79 136.32 -79 137 C-80.7734375 138.26953125 -80.7734375 138.26953125 -83.375 139.8125 C-88.6911655 143.09661768 -93.7607764 146.63560919 -98.8125 150.3125 C-99.97906128 151.16086426 -99.97906128 151.16086426 -101.16918945 152.02636719 C-102.72062734 153.15568354 -104.27165983 154.28555704 -105.82226562 155.41601562 C-108.89072143 157.64787003 -111.97385579 159.8587009 -115.0625 162.0625 C-115.61945557 162.46017578 -116.17641113 162.85785156 -116.75024414 163.26757812 C-121.23778815 166.46682277 -125.74385979 169.63953128 -130.25 172.8125 C-136.96062605 177.53817507 -143.62240697 182.32798818 -150.26855469 187.14379883 C-156.01742772 191.30410218 -161.80690739 195.40360776 -167.61206055 199.48486328 C-172.70904582 203.07395859 -177.76669493 206.71439355 -182.8125 210.375 C-192.46008422 217.36735303 -202.22522098 224.18716275 -212 231 C-217.95224539 235.15178699 -223.90112483 239.30823956 -229.83837891 243.48144531 C-231.20404331 244.44083458 -232.57076782 245.39871819 -233.93896484 246.35449219 C-235.54732041 247.47967187 -237.14902036 248.61434991 -238.75 249.75 C-239.59046875 250.34296875 -240.4309375 250.9359375 -241.296875 251.546875 C-241.85890625 252.02640625 -242.4209375 252.5059375 -243 253 C-243 253.66 -243 254.32 -243 255 C-243.86238281 255.15275391 -243.86238281 255.15275391 -244.7421875 255.30859375 C-247.39203751 256.12005301 -248.97199106 257.33108787 -251.125 259.0625 C-254.78823529 262 -254.78823529 262 -257 262 C-256.505 263.485 -256.505 263.485 -256 265 C-256.99 264.67 -257.98 264.34 -259 264 C-259.92242528 254.34025605 -260.1244596 244.75991201 -260.01953125 235.06640625 C-260.01257421 234.33560286 -260.00561718 233.60479946 -259.99844933 232.85185051 C-259.96143608 228.99984989 -259.91762555 225.14799957 -259.86791992 221.29614258 C-259.81817894 217.33661676 -259.79225175 213.37729592 -259.77148914 209.4175272 C-259.75110463 206.34862195 -259.7132357 203.28010888 -259.6706295 200.21143913 C-259.65336533 198.75114087 -259.64261188 197.29074971 -259.63868141 195.83035469 C-259.63157536 193.79243458 -259.59721568 191.7546652 -259.56176758 189.71704102 C-259.54986893 188.56156265 -259.53797028 187.40608429 -259.52571106 186.21559143 C-258.7894971 181.71242708 -256.67550895 178.59567438 -253.39111328 175.46777344 C-252.87274902 175.10200195 -252.35438477 174.73623047 -251.8203125 174.359375 C-250.93327637 173.72153076 -250.93327637 173.72153076 -250.02832031 173.07080078 C-249.40022461 172.63493652 -248.77212891 172.19907227 -248.125 171.75 C-247.46081055 171.27675293 -246.79662109 170.80350586 -246.11230469 170.31591797 C-244.74031478 169.33950655 -243.36530056 168.36733086 -241.98730469 167.39941406 C-240.17150144 166.12076735 -238.36830548 164.82695611 -236.5703125 163.5234375 C-229.97850652 158.75400921 -223.29031721 154.13771049 -216.5625 149.5625 C-210.1351553 145.19019573 -203.80448057 140.71868491 -197.55834961 136.09179688 C-192.95654051 132.68679076 -188.30584622 129.35794784 -183.625 126.0625 C-182.9144043 125.56210205 -182.20380859 125.0617041 -181.47167969 124.54614258 C-178.61584427 122.53730584 -175.75817499 120.53111003 -172.8984375 118.52783203 C-164.66926537 112.76240315 -156.50747913 106.92427387 -148.4375 100.9375 C-142.04009108 96.19286803 -135.57254272 91.5882158 -128.98583984 87.11083984 C-123.17551507 83.15102906 -117.47953523 79.04314498 -111.78979492 74.91259766 C-106.63645248 71.17408296 -101.45615137 67.47709581 -96.25 63.8125 C-87.01742759 57.31243781 -77.80388758 50.7875028 -68.6875 44.125 C-63.32277461 40.21190618 -57.89836158 36.38620995 -52.46948242 32.56298828 C-47.96766189 29.39185074 -43.47711244 26.20591375 -39 23 C-31.6379538 17.73314078 -24.25700576 12.49396279 -16.84277344 7.30078125 C-15.2617401 6.18475772 -13.69570253 5.04754299 -12.1328125 3.90625 C-11.36710938 3.3596875 -10.60140625 2.813125 -9.8125 2.25 C-9.20019531 1.80140625 -8.58789062 1.3528125 -7.95703125 0.890625 C-5.15052181 -0.38658888 -3.05096088 -0.30782364 0 0 Z " fill="#3072B1" transform="translate(504,287)"/>
<path d="M0 0 C1.30097122 0.00030212 2.60194244 0.00060425 3.94233704 0.00091553 C5.35243346 0.02133915 6.76252356 0.04220309 8.17260742 0.06347656 C9.62276935 0.07094236 11.07294141 0.07663369 12.52311707 0.08062744 C16.32917419 0.09585744 20.13461507 0.1351154 23.94042969 0.17944336 C27.82828435 0.22045363 31.71623916 0.23865067 35.60424805 0.25878906 C43.22497087 0.30161319 50.84518698 0.36983133 58.46557617 0.45410156 C59.18075187 106.5614175 59.5962186 212.66320609 59.15872893 384.06458987 C59.10741126 400.8859018 59.06301213 417.70722151 59.02319336 434.52856445 C58.9758442 454.52749312 58.92543192 474.52640927 58.86936796 494.52531558 C58.8634363 496.64184972 58.85750496 498.75838385 58.85157394 500.87491798 C58.84719637 502.4340082 58.84719637 502.4340082 58.84273035 504.0245952 C58.82251692 511.28852034 58.80440343 518.55244894 58.78706741 525.81638145 C58.76616373 534.53579991 58.74166142 543.25519933 58.71242096 551.97459396 C58.69765359 556.40128578 58.68449327 560.82796702 58.67561531 565.25467491 C58.66747041 569.2913367 58.65478933 573.32795667 58.63833015 577.36459289 C58.63317447 578.82845477 58.62972887 580.29232379 58.62809296 581.75619384 C58.62563909 583.7302891 58.61654743 585.7043729 58.60703468 587.67844677 C58.60383457 588.77781258 58.60063445 589.87717839 58.59733737 591.00985831 C58.46557617 593.45410156 58.46557617 593.45410156 57.46557617 594.45410156 C54.89826345 594.55430865 52.35780737 594.58848979 49.78993225 594.58108521 C48.97159849 594.58264697 48.15326473 594.58420873 47.31013298 594.58581781 C44.52997975 594.58984812 41.74988032 594.58663231 38.96972656 594.58349609 C36.96821022 594.58482611 34.96669413 594.58657884 32.96517849 594.58872032 C27.4251644 594.59327421 21.88516826 594.59135933 16.34515381 594.5883007 C11.58105065 594.5864303 6.81695147 594.58813614 2.05284846 594.58986354 C-13.05049977 594.59529233 -28.15383411 594.58973288 -43.25717957 594.58201887 C-50.13317121 594.57859534 -57.00916306 594.57675727 -63.88515528 594.57495715 C-141.01330979 594.5542592 -218.14152376 594.44590218 -331.34933283 594.1275254 C-343.24890165 594.09170087 -355.14847603 594.06096048 -367.04806519 594.03277588 C-380.62457681 594.00054772 -394.20104492 593.96094401 -407.77750528 593.91151214 C-414.74469796 593.88630072 -421.7118661 593.86415701 -428.67909241 593.85072327 C-435.06988288 593.83838779 -441.4605871 593.81614595 -447.85132229 593.7867105 C-450.1772329 593.77761939 -452.50315968 593.77194831 -454.82908714 593.76989007 C-457.97406138 593.7665968 -461.11874163 593.75121568 -464.26365662 593.73257446 C-465.18519689 593.73450916 -466.10673716 593.73644385 -467.05620289 593.73843718 C-473.30611585 593.68240954 -473.30611585 593.68240954 -475.53442383 591.45410156 C-475.20442383 591.12410156 -474.87442383 590.79410156 -474.53442383 590.45410156 C-474.43391216 587.71645688 -474.39826334 585.00401086 -474.4050293 582.26586914 C-474.40327698 581.40729309 -474.40152466 580.54871704 -474.39971924 579.66412354 C-474.39529716 576.80893974 -474.39824124 573.9538173 -474.40161133 571.09863281 C-474.40093808 569.11903369 -474.39996788 567.13943465 -474.39871216 565.15983582 C-474.39723445 561.00099911 -474.39939092 556.84218383 -474.40405273 552.68334961 C-474.40973152 547.35806718 -474.40648325 542.03283536 -474.40048027 536.70755482 C-474.39686076 532.6145744 -474.39801996 528.52160589 -474.40060806 524.42862511 C-474.40127445 522.46586794 -474.40045898 520.50310968 -474.39812851 518.54035378 C-474.39558129 515.78997577 -474.3994726 513.03967864 -474.4050293 510.28930664 C-474.40300507 509.48023361 -474.40098083 508.67116058 -474.39889526 507.83757019 C-474.41476324 503.585235 -474.79767588 499.65418402 -475.53442383 495.45410156 C-475.22106187 493.11800228 -474.88483373 490.78493156 -474.53442383 488.45410156 C-474.40567646 485.02629369 -474.4411967 481.6025061 -474.47192383 478.17285156 C-474.47571045 477.20053589 -474.47949707 476.22822021 -474.48339844 475.22644043 C-474.49555386 472.13561444 -474.51417537 469.04488448 -474.53442383 465.95410156 C-474.56110647 461.88118715 -474.58106191 457.80832092 -474.59692383 453.73535156 C-474.60522217 452.80911987 -474.61352051 451.88288818 -474.62207031 450.92858887 C-474.64066462 445.9872646 -474.38004545 441.32474895 -473.53442383 436.45410156 C-472.54442383 436.78410156 -471.55442383 437.11410156 -470.53442383 437.45410156 C-470.86442383 488.27410156 -471.19442383 539.09410156 -471.53442383 591.45410156 C-297.62442383 591.45410156 -123.71442383 591.45410156 55.46557617 591.45410156 C55.46557617 397.08410156 55.46557617 202.71410156 55.46557617 2.45410156 C53.15557617 2.78410156 50.84557617 3.11410156 48.46557617 3.45410156 C46.17477804 3.52054002 43.88222244 3.53956906 41.59057617 3.51660156 C40.28556152 3.50814209 38.98054687 3.49968262 37.63598633 3.4909668 C36.95465637 3.48475311 36.27332642 3.47853943 35.5713501 3.47213745 C24.73540409 3.37932791 13.9189192 3.42110936 3.09057617 3.89160156 C1.6577832 3.95057617 1.6577832 3.95057617 0.19604492 4.01074219 C-4.32353948 4.09311084 -4.32353948 4.09311084 -8.53442383 5.45410156 C-8.86442383 74.09410156 -9.19442383 142.73410156 -9.53442383 213.45410156 C-10.85442383 213.78410156 -12.17442383 214.11410156 -13.53442383 214.45410156 C-13.86442383 213.79410156 -14.19442383 213.13410156 -14.53442383 212.45410156 C-13.54442383 212.45410156 -12.55442383 212.45410156 -11.53442383 212.45410156 C-11.53903279 211.38581242 -11.54364176 210.31752327 -11.54839039 209.21686172 C-11.65929693 183.24524421 -11.74150913 157.27365733 -11.79348469 131.30185318 C-11.81928658 118.74216557 -11.85447521 106.18263421 -11.91162109 93.62304688 C-11.96139507 82.67846695 -11.99370038 71.73400017 -12.0048663 60.78931022 C-12.01139519 54.99198896 -12.02678145 49.19499143 -12.06307411 43.39777374 C-12.09693849 37.94440574 -12.10749605 32.49149569 -12.09996223 27.03803253 C-12.10134106 25.03366612 -12.11133016 23.02928484 -12.1304512 21.02500916 C-12.15523996 18.29330653 -12.14938119 15.56334485 -12.13569641 12.831604 C-12.15026062 12.03393812 -12.16482483 11.23627224 -12.17983037 10.41443467 C-12.13030903 6.7706356 -11.98159057 4.91708786 -9.40437287 2.24869514 C-5.960914 0.09548298 -4.03657468 -0.03135204 0 0 Z " fill="#316CA7" transform="translate(719.534423828125,207.5458984375)"/>
<path d="M0 0 C0.33 0 0.66 0 1 0 C1 51.48 1 102.96 1 156 C12.16763184 155.98952637 23.33526367 155.97905273 34.84130859 155.96826172 C70.53524452 155.93619133 106.2291805 155.91392779 141.92312708 155.89786934 C147.46339986 155.8953678 153.0036726 155.89277917 158.54394531 155.89013672 C160.19846366 155.88934979 160.19846366 155.88934979 161.88640662 155.88854696 C179.7682412 155.87983401 197.65006298 155.86405916 215.53188996 155.84569441 C233.86748003 155.82702008 252.20306337 155.81588852 270.53866255 155.81182301 C281.86125239 155.80907282 293.18380604 155.80037307 304.50638475 155.78416707 C312.26081062 155.77363061 320.01521768 155.77039176 327.76965021 155.77299725 C332.24981233 155.77428377 336.72991105 155.77225171 341.21006203 155.76158905 C345.30580328 155.75191194 349.40143801 155.75132869 353.49718399 155.75820221 C354.98442587 155.7590527 356.47167419 155.75646882 357.95890324 155.75023364 C359.96961837 155.74228915 361.98037336 155.74769435 363.99109459 155.75390434 C365.11126956 155.7531449 366.23144454 155.75238546 367.38556421 155.75160301 C370 156 370 156 372 158 C302.80493885 158.07182777 233.61052351 157.92918892 164.41584778 157.71246719 C161.22286995 157.70249211 158.02989204 157.69254324 154.83691406 157.68261719 C154.04477741 157.68015133 153.25264075 157.67768547 152.43649995 157.67514488 C139.36200735 157.63465565 126.28750585 157.60218471 113.21298474 157.57250018 C99.60701048 157.54146203 86.00107299 157.5029735 72.39514017 157.45720994 C64.82537531 157.43194554 57.25563293 157.40998615 49.68583679 157.39665604 C42.65218215 157.38426727 35.61862238 157.36194628 28.58501816 157.33261681 C26.00570024 157.32350916 23.42636764 157.31784343 20.84703445 157.31578636 C17.34481703 157.31248957 13.84286265 157.29708779 10.34069824 157.2784729 C9.31066728 157.28040763 8.28063632 157.28234237 7.2193923 157.28433573 C6.28859555 157.27687024 5.3577988 157.26940475 4.39879608 157.26171303 C3.591693 157.25943471 2.78458991 157.25715638 1.95302916 157.25480902 C0 157 0 157 -2 155 C-1.67 154.67 -1.34 154.34 -1 154 C-0.89948833 151.26235532 -0.86383951 148.54990929 -0.87060547 145.81176758 C-0.86885315 144.95319153 -0.86710083 144.09461548 -0.86529541 143.21002197 C-0.86087333 140.35483818 -0.86381741 137.49971574 -0.8671875 134.64453125 C-0.86651425 132.66493213 -0.86554405 130.68533309 -0.86428833 128.70573425 C-0.86281063 124.54689755 -0.86496709 120.38808227 -0.86962891 116.22924805 C-0.87530769 110.90396562 -0.87205942 105.5787338 -0.86605644 100.25345325 C-0.86243693 96.16047283 -0.86359613 92.06750433 -0.86618423 87.97452354 C-0.86685062 86.01176637 -0.86603515 84.04900811 -0.86370468 82.08625221 C-0.86115746 79.33587421 -0.86504877 76.58557708 -0.87060547 73.83520508 C-0.86858124 73.02613205 -0.86655701 72.21705902 -0.86447144 71.38346863 C-0.88033942 67.13113344 -1.26325205 63.20008246 -2 59 C-1.68663804 56.66390072 -1.3504099 54.33082999 -1 52 C-0.87125263 48.57219213 -0.90677287 45.14840453 -0.9375 41.71875 C-0.94128662 40.74643433 -0.94507324 39.77411865 -0.94897461 38.77233887 C-0.96113003 35.68151288 -0.97975154 32.59078291 -1 29.5 C-1.02668264 25.42708559 -1.04663808 21.35421936 -1.0625 17.28125 C-1.07079834 16.35501831 -1.07909668 15.42878662 -1.08764648 14.4744873 C-1.10624079 9.53316304 -0.84562163 4.87064739 0 0 Z " fill="#4578AC" transform="translate(246,644)"/>
<path d="M0 0 C0.66 0 1.32 0 2 0 C1.83544815 0.83016632 1.6708963 1.66033264 1.50135803 2.51565552 C0.9577118 6.29389508 0.90777419 9.94619477 0.97827148 13.74951172 C0.98787903 14.50141281 0.99748657 15.2533139 1.00738525 16.02799988 C1.04017511 18.49533044 1.08058252 20.96247267 1.12109375 23.4296875 C1.14541447 25.1474645 1.16925704 26.86524834 1.19264221 28.58303833 C1.25528898 33.09085914 1.32440998 37.59855809 1.39489746 42.10626221 C1.46575683 46.71141031 1.53046824 51.3166444 1.59570312 55.921875 C1.72446509 64.94801118 1.86006953 73.97403053 2 83 C1.34 83 0.68 83 0 83 C0.33 83.99 0.66 84.98 1 86 C0.01 85.67 -0.98 85.34 -2 85 C-2.93663137 75.31192785 -3.09535002 65.71698024 -2.94921875 55.99609375 C-2.92992776 54.49968255 -2.91087415 53.00326827 -2.89204407 51.5068512 C-2.85144741 48.39992165 -2.80627266 45.29309953 -2.75805664 42.1862793 C-2.69695293 38.20869441 -2.65026912 34.23108046 -2.60722637 30.25326443 C-2.57189538 27.17596103 -2.52766823 24.09883317 -2.48087502 21.02168465 C-2.45988296 19.55412912 -2.44196495 18.08652618 -2.4272213 16.61889458 C-2.40564249 14.57580773 -2.37048634 12.53287791 -2.3347168 10.48999023 C-2.31837692 9.33007065 -2.30203705 8.17015106 -2.28520203 6.9750824 C-2.0108063 4.11272584 -1.48942911 2.42544936 0 0 Z " fill="#25619E" transform="translate(247,466)"/>
<path d="M0 0 C0.33 0 0.66 0 1 0 C1.33 25.74 1.66 51.48 2 78 C2.66 78.33 3.32 78.66 4 79 C3.34 79 2.68 79 2 79 C2.33 79.99 2.66 80.98 3 82 C2.01 81.67 1.02 81.34 0 81 C-0.95426642 71.26008375 -1.06578131 61.62714634 -0.87890625 51.85546875 C-0.85453107 50.34948046 -0.8306916 48.84348342 -0.80735779 47.33747864 C-0.74525108 43.41993038 -0.67598659 39.502542 -0.60510254 35.58514404 C-0.53374533 31.56920503 -0.46933516 27.55315481 -0.40429688 23.53710938 C-0.27623453 15.69128307 -0.14059137 7.84561288 0 0 Z " fill="#6693BD" transform="translate(245,470)"/>
<path d="M0 0 C-1.36706636 4.10119909 -4.19862974 5.5321226 -7.625 7.875 C-8.22957031 8.29652344 -8.83414062 8.71804688 -9.45703125 9.15234375 C-10.68013584 10.00512669 -11.90705895 10.85245844 -13.13769531 11.69433594 C-14.41746782 12.59158599 -15.67661939 13.51875303 -16.91699219 14.46972656 C-18.55845846 15.71917512 -20.2752616 16.86827093 -22 18 C-22.99 17.67 -23.98 17.34 -25 17 C-22.48020165 15.10278804 -19.95896967 13.20748998 -17.4375 11.3125 C-16.73302734 10.78205078 -16.02855469 10.25160156 -15.30273438 9.70507812 C-13.20642808 8.1304333 -11.10465145 6.56346955 -9 5 C-8.33371582 4.50161621 -7.66743164 4.00323242 -6.98095703 3.48974609 C-2.23317901 0 -2.23317901 0 0 0 Z " fill="#316AA5" transform="translate(468,564)"/>
<path d="M0 0 C-5.94 4.29 -11.88 8.58 -18 13 C-18.66 12.67 -19.32 12.34 -20 12 C-16.7828271 8.45001612 -13.24987137 5.53014931 -9.4375 2.625 C-8.50808594 1.91601562 -7.57867187 1.20703125 -6.62109375 0.4765625 C-4 -1 -4 -1 0 0 Z " fill="#326BA7" transform="translate(320,417)"/>
<path d="M0 0 C-1.52041591 4.19522169 -4.19000456 5.724465 -7.875 8.0625 C-12.15494331 10.7703491 -12.15494331 10.7703491 -16.1953125 13.80859375 C-16.79085938 14.20175781 -17.38640625 14.59492188 -18 15 C-18.99 14.67 -19.98 14.34 -21 14 C-19.44539063 12.86111328 -19.44539063 12.86111328 -17.859375 11.69921875 C-16.48957483 10.6953241 -15.11978363 9.69141721 -13.75 8.6875 C-13.06808594 8.18798828 -12.38617188 7.68847656 -11.68359375 7.17382812 C-11.01972656 6.68720703 -10.35585938 6.20058594 -9.671875 5.69921875 C-9.03056641 5.2304834 -8.38925781 4.76174805 -7.72851562 4.27880859 C-6.34816188 3.25758078 -4.99031256 2.20595773 -3.640625 1.14453125 C-2 0 -2 0 0 0 Z " fill="#326BA7" transform="translate(456,399)"/>
<path d="M0 0 C-5.28 3.96 -10.56 7.92 -16 12 C-16.66 11.67 -17.32 11.34 -18 11 C-14.06180253 5.09270379 -7.29282291 -1.82320573 0 0 Z " fill="#336DA8" transform="translate(376,377)"/>
<path d="M0 0 C-1.39218656 4.17655968 -4.36099982 5.79405816 -7.8125 8.25 C-8.44220703 8.72179687 -9.07191406 9.19359375 -9.72070312 9.6796875 C-11.58203125 11.015625 -11.58203125 11.015625 -15 13 C-17.21362305 12.62402344 -17.21362305 12.62402344 -19 12 C-16.21373218 9.99239214 -13.42013417 7.99524047 -10.625 6 C-9.8309375 5.42765625 -9.036875 4.8553125 -8.21875 4.265625 C-7.45820312 3.72421875 -6.69765625 3.1828125 -5.9140625 2.625 C-4.8614624 1.87089844 -4.8614624 1.87089844 -3.78759766 1.1015625 C-2 0 -2 0 0 0 Z " fill="#326BA6" transform="translate(612,461)"/>
<path d="M0 0 C0.33 0 0.66 0 1 0 C1.33 7.92 1.66 15.84 2 24 C2.66 24.33 3.32 24.66 4 25 C3.34 25 2.68 25 2 25 C2.33 25.99 2.66 26.98 3 28 C2.01 27.67 1.02 27.34 0 27 C-0.98753178 17.85393643 -0.89191731 9.15244374 0 0 Z " fill="#5885B3" transform="translate(245,524)"/>
<path d="M0 0 C-4.62 3.3 -9.24 6.6 -14 10 C-14.66 9.67 -15.32 9.34 -16 9 C-13.30291809 6.13945858 -10.55626501 3.52456704 -7.4375 1.125 C-6.87933594 0.69445312 -6.32117188 0.26390625 -5.74609375 -0.1796875 C-4 -1 -4 -1 0 0 Z " fill="#306AA7" transform="translate(544,433)"/>
<path d="M0 0 C3.69070713 0.63811291 6.19249355 2.25620167 9.25 4.375 C10.14203125 4.98085938 11.0340625 5.58671875 11.953125 6.2109375 C12.62859375 6.80132812 13.3040625 7.39171875 14 8 C14 8.99 14 9.98 14 11 C11.85038384 9.54699102 9.70532871 8.0879574 7.5625 6.625 C6.95083984 6.2125 6.33917969 5.8 5.70898438 5.375 C1.11328125 2.2265625 1.11328125 2.2265625 0 0 Z " fill="#346DA8" transform="translate(523,302)"/>
<path d="M0 0 C2.875 1.5 2.875 1.5 5 3 C3.0625 3.5625 3.0625 3.5625 1 4 C0.67 3.67 0.34 3.34 0 3 C-4.04352289 3.46656033 -8.01928836 4.15560662 -12 5 C-7.91758653 0.78150608 -5.98640902 -0.46952228 0 0 Z " fill="#3F75AB" transform="translate(504,287)"/>
<path d="M0 0 C1.32 0.33 2.64 0.66 4 1 C0.04 3.97 -3.92 6.94 -8 10 C-8.66 9.67 -9.32 9.34 -10 9 C-3.55263158 2.36842105 -3.55263158 2.36842105 0 0 Z " fill="#2F6BA8" transform="translate(286,614)"/>
<path d="M0 0 C1.32 0.33 2.64 0.66 4 1 C0.04 3.97 -3.92 6.94 -8 10 C-8.66 9.67 -9.32 9.34 -10 9 C-3.55263158 2.36842105 -3.55263158 2.36842105 0 0 Z " fill="#306AA7" transform="translate(452,495)"/>
<path d="M0 0 C3.83663072 1.34929464 6.65172569 3.07751025 9.8125 5.625 C10.99779297 6.57246094 10.99779297 6.57246094 12.20703125 7.5390625 C12.79871094 8.02117187 13.39039063 8.50328125 14 9 C13.01 9.33 12.02 9.66 11 10 C8.5546875 8.671875 8.5546875 8.671875 5.875 6.75 C4.98554687 6.12609375 4.09609375 5.5021875 3.1796875 4.859375 C1 3 1 3 0 0 Z " fill="#2E68A4" transform="translate(673,476)"/>
<path d="M0 0 C3.9520518 0.58172725 6.22095053 2.55157741 9.25 5.0625 C10.14203125 5.79597656 11.0340625 6.52945312 11.953125 7.28515625 C12.62859375 7.85105469 13.3040625 8.41695313 14 9 C13.01 9.33 12.02 9.66 11 10 C8.73828125 8.63671875 8.73828125 8.63671875 6.3125 6.6875 C5.50425781 6.05199219 4.69601562 5.41648437 3.86328125 4.76171875 C3.24839844 4.18035156 2.63351562 3.59898437 2 3 C2 2.34 2 1.68 2 1 C1.34 0.67 0.68 0.34 0 0 Z " fill="#2D68A4" transform="translate(631,446)"/>
<path d="M0 0 C-5.445 3.96 -5.445 3.96 -11 8 C-11.66 7.67 -12.32 7.34 -13 7 C-4.84931507 -1.61643836 -4.84931507 -1.61643836 0 0 Z " fill="#336AA5" transform="translate(494,293)"/>
<path d="M0 0 C0.66 0.33 1.32 0.66 2 1 C-1.43361902 4.63559661 -4.7973607 7.36113346 -9 10 C-9 9.01 -9 8.02 -9 7 C-7.03125 5.17578125 -7.03125 5.17578125 -4.5 3.3125 C-3.6646875 2.68988281 -2.829375 2.06726563 -1.96875 1.42578125 C-1.3190625 0.95527344 -0.669375 0.48476563 0 0 Z " fill="#3A73AB" transform="translate(258,457)"/>
<path d="M0 0 C1.32 0.33 2.64 0.66 4 1 C-0.455 4.465 -0.455 4.465 -5 8 C-5.66 7.67 -6.32 7.34 -7 7 C-4.78071806 4.09197539 -3.07030857 2.04687238 0 0 Z " fill="#306BA7" transform="translate(470,482)"/>
<path d="M0 0 C-1.22053859 3.66161578 -2.36782304 4.16270474 -5.5625 6.1875 C-6.38878906 6.71730469 -7.21507812 7.24710938 -8.06640625 7.79296875 C-8.70449219 8.19128906 -9.34257812 8.58960938 -10 9 C-10 8.01 -10 7.02 -10 6 C-8.3203125 4.39453125 -8.3203125 4.39453125 -6.125 2.8125 C-5.04605469 2.01779297 -5.04605469 2.01779297 -3.9453125 1.20703125 C-2 0 -2 0 0 0 Z " fill="#326AA6" transform="translate(489,549)"/>
<path d="M0 0 C1.32 0.33 2.64 0.66 4 1 C1.36 2.98 -1.28 4.96 -4 7 C-4.66 6.67 -5.32 6.34 -6 6 C-4 4 -2 2 0 0 Z " fill="#2F6AA7" transform="translate(364,558)"/>
<path d="M0 0 C1.32 0.33 2.64 0.66 4 1 C1.36 2.98 -1.28 4.96 -4 7 C-4.66 6.67 -5.32 6.34 -6 6 C-4 4 -2 2 0 0 Z " fill="#2F6BA7" transform="translate(582,402)"/>
<path d="M0 0 C1.32 0.33 2.64 0.66 4 1 C1.36 2.98 -1.28 4.96 -4 7 C-4.66 6.67 -5.32 6.34 -6 6 C-4 4 -2 2 0 0 Z " fill="#2F69A7" transform="translate(424,515)"/>
<path d="M0 0 C0 0.66 0 1.32 0 2 C-1.390625 3.32421875 -1.390625 3.32421875 -3.25 4.6875 C-3.85328125 5.14511719 -4.4565625 5.60273438 -5.078125 6.07421875 C-7 7 -7 7 -9.234375 6.64453125 C-9.81703125 6.43183594 -10.3996875 6.21914063 -11 6 C-9.54550599 4.9944239 -8.08627557 3.99569565 -6.625 3 C-5.40683594 2.1646875 -5.40683594 2.1646875 -4.1640625 1.3125 C-2 0 -2 0 0 0 Z " fill="#326BA6" transform="translate(368,462)"/>
<path d="M0 0 C1.32 0.33 2.64 0.66 4 1 C1.36 2.98 -1.28 4.96 -4 7 C-4.66 6.67 -5.32 6.34 -6 6 C-4 4 -2 2 0 0 Z " fill="#2F69A7" transform="translate(347,394)"/>
<path d="M0 0 C-1.44472346 3.80881639 -3.32603071 5.29742886 -7 7 C-7.99 6.67 -8.98 6.34 -10 6 C-8.71283353 4.99421411 -7.42011342 3.99553202 -6.125 3 C-5.40570313 2.443125 -4.68640625 1.88625 -3.9453125 1.3125 C-2 0 -2 0 0 0 Z " fill="#3069A6" transform="translate(359,642)"/>
<path d="M0 0 C1.32 0.33 2.64 0.66 4 1 C1.36 2.98 -1.28 4.96 -4 7 C-4.66 6.67 -5.32 6.34 -6 6 C-4 4 -2 2 0 0 Z " fill="#316AA6" transform="translate(264,453)"/>
<path d="M0 0 C0.66 0.33 1.32 0.66 2 1 C-1.17320782 4.53586014 -3.16743695 6.58578031 -8 7 C-5.4837822 4.39391727 -2.94865641 2.10618315 0 0 Z " fill="#3C74AD" transform="translate(469,307)"/>
<path d="M0 0 C-1.34882814 4.04648443 -3.34826069 4.95502599 -7 7 C-7.99 6.67 -8.98 6.34 -10 6 C-8.71283353 4.99421411 -7.42011342 3.99553202 -6.125 3 C-5.40570312 2.443125 -4.68640625 1.88625 -3.9453125 1.3125 C-2 0 -2 0 0 0 Z " fill="#2F68A3" transform="translate(556,501)"/>
<path d="M0 0 C1.32 0.33 2.64 0.66 4 1 C1.69 2.65 -0.62 4.3 -3 6 C-3.66 5.67 -4.32 5.34 -5 5 C-2.75 2.4375 -2.75 2.4375 0 0 Z " fill="#326CA7" transform="translate(434,508)"/>
<path d="M0 0 C0 0.99 0 1.98 0 3 C-2.3125 5.25 -2.3125 5.25 -5 7 C-5.99 6.67 -6.98 6.34 -8 6 C-5.36 4.02 -2.72 2.04 0 0 Z " fill="#2F68A3" transform="translate(488,375)"/>
<path d="M0 0 C0.66 0.33 1.32 0.66 2 1 C-0.31 2.65 -2.62 4.3 -5 6 C-5.66 5.67 -6.32 5.34 -7 5 C-4.63707344 2.47411298 -3.33537489 1.11179163 0 0 Z " fill="#2C69A7" transform="translate(386,544)"/>
<path d="M0 0 C0.66 0.33 1.32 0.66 2 1 C0.68 2.65 -0.64 4.3 -2 6 C-3.32 5.67 -4.64 5.34 -6 5 C-4.02 3.35 -2.04 1.7 0 0 Z " fill="#3E76AF" transform="translate(262,631)"/>
<path d="M0 0 C-1 3 -1 3 -3.375 4.75 C-6 6 -6 6 -9 5 C-7.87926138 4.16094435 -6.75325453 3.32892169 -5.625 2.5 C-4.99851562 2.0359375 -4.37203125 1.571875 -3.7265625 1.09375 C-2 0 -2 0 0 0 Z " fill="#2F68A4" transform="translate(404,610)"/>
<path d="M0 0 C0.66 0.33 1.32 0.66 2 1 C-0.31 2.65 -2.62 4.3 -5 6 C-5.66 5.67 -6.32 5.34 -7 5 C-4.63707344 2.47411298 -3.33537489 1.11179163 0 0 Z " fill="#2C68A5" transform="translate(510,455)"/>
<path d="M0 0 C2.25 0.25 2.25 0.25 4 1 C1.6875 3.0625 1.6875 3.0625 -1 5 C-1.99 4.67 -2.98 4.34 -4 4 C-2.25 1.9375 -2.25 1.9375 0 0 Z " fill="#336DA7" transform="translate(389,364)"/>
<path d="M0 0 C1.32 0.33 2.64 0.66 4 1 C1.03 3.475 1.03 3.475 -2 6 C-2.66 5.67 -3.32 5.34 -4 5 C-2.68 3.35 -1.36 1.7 0 0 Z " fill="#2E68A5" transform="translate(473,304)"/>
<path d="M0 0 C0.33 0.66 0.66 1.32 1 2 C-0.98 3.32 -2.96 4.64 -5 6 C-5.66 5.67 -6.32 5.34 -7 5 C-4.53846154 1.18461538 -4.53846154 1.18461538 -1.8125 0.25 C-1.214375 0.1675 -0.61625 0.085 0 0 Z " fill="#3D75B0" transform="translate(424,422)"/>
<path d="M0 0 C3.68754757 0.49831724 5.60490662 1.10067643 8 4 C7.67 4.66 7.34 5.32 7 6 C5.83054208 5.19152271 4.66449539 4.37810888 3.5 3.5625 C2.8503125 3.11003906 2.200625 2.65757812 1.53125 2.19140625 C1.0259375 1.79824219 0.520625 1.40507812 0 1 C0 0.67 0 0.34 0 0 Z " fill="#306AA5" transform="translate(643,376)"/>
<path d="M0 0 C1 4 1 4 1 4 Z " fill="#467BB2" transform="translate(705,253)"/>
<path d="M0 0 C0.66 0 1.32 0 2 0 C1.67 0.66 1.34 1.32 1 2 C0.67 1.34 0.34 0.68 0 0 Z " fill="#467DB6" transform="translate(422,426)"/>
<path d="M0 0 C2 1 2 1 2 1 Z " fill="#447BB4" transform="translate(468,480)"/>
<path d="M0 0 C2 1 2 1 2 1 Z " fill="#477FB9" transform="translate(656,468)"/>
<path d="" fill="#467BB6" transform="translate(0,0)"/>
<path d="" fill="#497CAF" transform="translate(0,0)"/>
<path d="" fill="#467BAF" transform="translate(0,0)"/>
<path d="M0 0 C2 1 2 1 2 1 Z " fill="#497CB1" transform="translate(432,331)"/>
<path d="" fill="#4A7BAE" transform="translate(0,0)"/>
<path d="" fill="#487CB4" transform="translate(0,0)"/>
<path d="M0 0 C2 1 2 1 2 1 Z " fill="#4A7AAE" transform="translate(509,289)"/>
<path d="" fill="#467DB4" transform="translate(0,0)"/>
<path d="" fill="#457AB2" transform="translate(0,0)"/>
<path d="" fill="#404346" transform="translate(0,0)"/>
<path d="" fill="#40464C" transform="translate(0,0)"/>
<path d="" fill="#3C4548" transform="translate(0,0)"/>
<path d="" fill="#3D454B" transform="translate(0,0)"/>
<path d="" fill="#484848" transform="translate(0,0)"/>
<path d="" fill="#3F464F" transform="translate(0,0)"/>
<path d="" fill="#3F484D" transform="translate(0,0)"/>
<path d="" fill="#414A52" transform="translate(0,0)"/>
<path d="" fill="#3F4C54" transform="translate(0,0)"/>
<path d="" fill="#414D59" transform="translate(0,0)"/>
<path d="" fill="#43464A" transform="translate(0,0)"/>
<path d="" fill="#444F56" transform="translate(0,0)"/>
<path d="" fill="#45484C" transform="translate(0,0)"/>
<path d="" fill="#425563" transform="translate(0,0)"/>
<path d="" fill="#484847" transform="translate(0,0)"/>
<path d="" fill="#475668" transform="translate(0,0)"/>
<path d="" fill="#434B53" transform="translate(0,0)"/>
<path d="" fill="#43596B" transform="translate(0,0)"/>
<path d="" fill="#4B5052" transform="translate(0,0)"/>
<path d="" fill="#476583" transform="translate(0,0)"/>
<path d="" fill="#4974A5" transform="translate(0,0)"/>
<path d="" fill="#4874A5" transform="translate(0,0)"/>
<path d="" fill="#4A76A8" transform="translate(0,0)"/>
<path d="" fill="#4877A8" transform="translate(0,0)"/>
<path d="" fill="#4976A8" transform="translate(0,0)"/>
<path d="" fill="#4A77AB" transform="translate(0,0)"/>
<path d="" fill="#4978A9" transform="translate(0,0)"/>
<path d="" fill="#436FA1" transform="translate(0,0)"/>
<path d="" fill="#515153" transform="translate(0,0)"/>
<path d="" fill="#4472A0" transform="translate(0,0)"/>
<path d="" fill="#4274A8" transform="translate(0,0)"/>
<path d="" fill="#4C5A63" transform="translate(0,0)"/>
<path d="" fill="#4678AC" transform="translate(0,0)"/>
<path d="" fill="#4676A8" transform="translate(0,0)"/>
<path d="" fill="#4778AA" transform="translate(0,0)"/>
<path d="" fill="#4379AC" transform="translate(0,0)"/>
<path d="" fill="#4477AE" transform="translate(0,0)"/>
<path d="" fill="#487BB4" transform="translate(0,0)"/>
<path d="" fill="#4478B1" transform="translate(0,0)"/>
<path d="" fill="#457DB5" transform="translate(0,0)"/>
<path d="" fill="#487DB5" transform="translate(0,0)"/>
<path d="" fill="#4679AC" transform="translate(0,0)"/>
<path d="" fill="#4575AA" transform="translate(0,0)"/>
<path d="" fill="#4679AB" transform="translate(0,0)"/>
<path d="" fill="#457EB6" transform="translate(0,0)"/>
<path d="" fill="#457AB2" transform="translate(0,0)"/>
<path d="" fill="#4679AF" transform="translate(0,0)"/>
<path d="" fill="#487AAD" transform="translate(0,0)"/>
<path d="" fill="#457DB4" transform="translate(0,0)"/>
<path d="" fill="#447EB5" transform="translate(0,0)"/>
<path d="" fill="#4778AA" transform="translate(0,0)"/>
<path d="" fill="#565759" transform="translate(0,0)"/>
<path d="" fill="#4979AC" transform="translate(0,0)"/>
<path d="" fill="#477DB6" transform="translate(0,0)"/>
<path d="" fill="#4478B0" transform="translate(0,0)"/>
<path d="" fill="#4B7DAD" transform="translate(0,0)"/>
<path d="" fill="#457AB1" transform="translate(0,0)"/>
<path d="" fill="#487CAD" transform="translate(0,0)"/>
<path d="" fill="#447FB4" transform="translate(0,0)"/>
<path d="" fill="#457FB6" transform="translate(0,0)"/>
<path d="" fill="#4B729B" transform="translate(0,0)"/>
<path d="" fill="#4C7CAC" transform="translate(0,0)"/>
<path d="" fill="#437EB3" transform="translate(0,0)"/>
<path d="" fill="#4C80B0" transform="translate(0,0)"/>
<path d="" fill="#4A7EAE" transform="translate(0,0)"/>
<path d="" fill="#467FB5" transform="translate(0,0)"/>
<path d="" fill="#497FB1" transform="translate(0,0)"/>
<path d="" fill="#477CB2" transform="translate(0,0)"/>
<path d="" fill="#467CB5" transform="translate(0,0)"/>
<path d="" fill="#4680B7" transform="translate(0,0)"/>
<path d="" fill="#467CB2" transform="translate(0,0)"/>
<path d="" fill="#487CB0" transform="translate(0,0)"/>
<path d="" fill="#467CB4" transform="translate(0,0)"/>
<path d="" fill="#4A7CB1" transform="translate(0,0)"/>
<path d="" fill="#4779B1" transform="translate(0,0)"/>
<path d="" fill="#4577B3" transform="translate(0,0)"/>
<path d="" fill="#477BB3" transform="translate(0,0)"/>
<path d="" fill="#467CB2" transform="translate(0,0)"/>
<path d="" fill="#477DB4" transform="translate(0,0)"/>
<path d="" fill="#487CB5" transform="translate(0,0)"/>
<path d="" fill="#467EB2" transform="translate(0,0)"/>
<path d="" fill="#497DB4" transform="translate(0,0)"/>
<path d="" fill="#437DB1" transform="translate(0,0)"/>
<path d="" fill="#487BB3" transform="translate(0,0)"/>
<path d="" fill="#477AAD" transform="translate(0,0)"/>
<path d="" fill="#467DB4" transform="translate(0,0)"/>
<path d="" fill="#447EB6" transform="translate(0,0)"/>
<path d="" fill="#487DB6" transform="translate(0,0)"/>
<path d="" fill="#467BB1" transform="translate(0,0)"/>
<path d="" fill="#4A7DB4" transform="translate(0,0)"/>
<path d="" fill="#477DB5" transform="translate(0,0)"/>
<path d="" fill="#477CB4" transform="translate(0,0)"/>
<path d="" fill="#467CB3" transform="translate(0,0)"/>
<path d="" fill="#4C7AAB" transform="translate(0,0)"/>
<path d="" fill="#447BB5" transform="translate(0,0)"/>
<path d="" fill="#477AB5" transform="translate(0,0)"/>
<path d="" fill="#4378B0" transform="translate(0,0)"/>
<path d="" fill="#5A636A" transform="translate(0,0)"/>
<path d="" fill="#497AAB" transform="translate(0,0)"/>
<path d="" fill="#555659" transform="translate(0,0)"/>
<path d="" fill="#4A7EB6" transform="translate(0,0)"/>
<path d="" fill="#427AB3" transform="translate(0,0)"/>
<path d="" fill="#487DB6" transform="translate(0,0)"/>
<path d="" fill="#467AAC" transform="translate(0,0)"/>
<path d="" fill="#467EB5" transform="translate(0,0)"/>
<path d="" fill="#467FBA" transform="translate(0,0)"/>
<path d="" fill="#477EB7" transform="translate(0,0)"/>
<path d="" fill="#467CB5" transform="translate(0,0)"/>
<path d="" fill="#487AAB" transform="translate(0,0)"/>
<path d="" fill="#4878AD" transform="translate(0,0)"/>
<path d="" fill="#427BB3" transform="translate(0,0)"/>
<path d="" fill="#467CB3" transform="translate(0,0)"/>
<path d="" fill="#477EB4" transform="translate(0,0)"/>
<path d="" fill="#477DB5" transform="translate(0,0)"/>
<path d="" fill="#447BB6" transform="translate(0,0)"/>
<path d="" fill="#467BB4" transform="translate(0,0)"/>
<path d="" fill="#427CB3" transform="translate(0,0)"/>
<path d="" fill="#497BAD" transform="translate(0,0)"/>
<path d="" fill="#477DB5" transform="translate(0,0)"/>
<path d="" fill="#477EB4" transform="translate(0,0)"/>
<path d="" fill="#457CB4" transform="translate(0,0)"/>
<path d="" fill="#457DB9" transform="translate(0,0)"/>
<path d="" fill="#447CB3" transform="translate(0,0)"/>
<path d="" fill="#447CB5" transform="translate(0,0)"/>
<path d="" fill="#467DB3" transform="translate(0,0)"/>
<path d="" fill="#457CB4" transform="translate(0,0)"/>
<path d="" fill="#427CB5" transform="translate(0,0)"/>
<path d="" fill="#447AB3" transform="translate(0,0)"/>
<path d="" fill="#50565B" transform="translate(0,0)"/>
<path d="" fill="#497DB4" transform="translate(0,0)"/>
<path d="" fill="#477AB5" transform="translate(0,0)"/>
<path d="" fill="#447AB5" transform="translate(0,0)"/>
<path d="" fill="#447AB0" transform="translate(0,0)"/>
<path d="" fill="#467AB5" transform="translate(0,0)"/>
<path d="" fill="#447CB3" transform="translate(0,0)"/>
<path d="" fill="#457BB2" transform="translate(0,0)"/>
<path d="" fill="#467BB6" transform="translate(0,0)"/>
<path d="" fill="#437AB4" transform="translate(0,0)"/>
<path d="" fill="#477CB6" transform="translate(0,0)"/>
<path d="" fill="#447DB6" transform="translate(0,0)"/>
<path d="" fill="#447EB7" transform="translate(0,0)"/>
<path d="" fill="#487CB8" transform="translate(0,0)"/>
<path d="" fill="#477CB6" transform="translate(0,0)"/>
<path d="" fill="#517FAA" transform="translate(0,0)"/>
<path d="" fill="#4981B8" transform="translate(0,0)"/>
<path d="" fill="#4C7DA8" transform="translate(0,0)"/>
<path d="" fill="#477DB6" transform="translate(0,0)"/>
<path d="" fill="#457BB6" transform="translate(0,0)"/>
<path d="" fill="#447CB5" transform="translate(0,0)"/>
<path d="" fill="#4E7EAB" transform="translate(0,0)"/>
<path d="" fill="#4E7DA9" transform="translate(0,0)"/>
<path d="" fill="#467EB3" transform="translate(0,0)"/>
<path d="" fill="#4D80B2" transform="translate(0,0)"/>
<path d="" fill="#467AB3" transform="translate(0,0)"/>
<path d="" fill="#437EB4" transform="translate(0,0)"/>
<path d="" fill="#427AB6" transform="translate(0,0)"/>
<path d="" fill="#4A7BAD" transform="translate(0,0)"/>
<path d="" fill="#4B7DB2" transform="translate(0,0)"/>
<path d="" fill="#457BB3" transform="translate(0,0)"/>
<path d="" fill="#447BB4" transform="translate(0,0)"/>
<path d="" fill="#467AAC" transform="translate(0,0)"/>
<path d="" fill="#447BB7" transform="translate(0,0)"/>
<path d="" fill="#497FB0" transform="translate(0,0)"/>
<path d="" fill="#477DB5" transform="translate(0,0)"/>
<path d="" fill="#497EB2" transform="translate(0,0)"/>
<path d="" fill="#487CB9" transform="translate(0,0)"/>
<path d="" fill="#457DBA" transform="translate(0,0)"/>
<path d="" fill="#4678AC" transform="translate(0,0)"/>
<path d="" fill="#477BB0" transform="translate(0,0)"/>
<path d="" fill="#467AAE" transform="translate(0,0)"/>
<path d="" fill="#457DB7" transform="translate(0,0)"/>
<path d="" fill="#467BB4" transform="translate(0,0)"/>
<path d="" fill="#467EB6" transform="translate(0,0)"/>
<path d="" fill="#467BAF" transform="translate(0,0)"/>
<path d="" fill="#4578AC" transform="translate(0,0)"/>
<path d="" fill="#477AAE" transform="translate(0,0)"/>
<path d="" fill="#4879B0" transform="translate(0,0)"/>
<path d="" fill="#487CAD" transform="translate(0,0)"/>
<path d="" fill="#497AB0" transform="translate(0,0)"/>
<path d="" fill="#4B7BAF" transform="translate(0,0)"/>
<path d="" fill="#467CB4" transform="translate(0,0)"/>
<path d="" fill="#457FB4" transform="translate(0,0)"/>
<path d="" fill="#497EB0" transform="translate(0,0)"/>
<path d="" fill="#457AB1" transform="translate(0,0)"/>
<path d="" fill="#4A7AB0" transform="translate(0,0)"/>
<path d="" fill="#477BB0" transform="translate(0,0)"/>
<path d="" fill="#4D5862" transform="translate(0,0)"/>
<path d="" fill="#437AB4" transform="translate(0,0)"/>
<path d="" fill="#4B7AAE" transform="translate(0,0)"/>
<path d="" fill="#477DB2" transform="translate(0,0)"/>
<path d="" fill="#4C7EB2" transform="translate(0,0)"/>
<path d="" fill="#526B86" transform="translate(0,0)"/>
<path d="" fill="#487AB0" transform="translate(0,0)"/>
<path d="" fill="#457BB2" transform="translate(0,0)"/>
<path d="" fill="#4B7DB4" transform="translate(0,0)"/>
<path d="" fill="#497BB0" transform="translate(0,0)"/>
<path d="" fill="#487BAE" transform="translate(0,0)"/>
<path d="" fill="#4979B0" transform="translate(0,0)"/>
<path d="" fill="#497BAE" transform="translate(0,0)"/>
<path d="" fill="#497CB1" transform="translate(0,0)"/>
<path d="" fill="#506F90" transform="translate(0,0)"/>
<path d="" fill="#477AB0" transform="translate(0,0)"/>
<path d="" fill="#457EB8" transform="translate(0,0)"/>
<path d="" fill="#487AB0" transform="translate(0,0)"/>
<path d="" fill="#447BB0" transform="translate(0,0)"/>
<path d="" fill="#477CAE" transform="translate(0,0)"/>
<path d="" fill="#487AAE" transform="translate(0,0)"/>
<path d="" fill="#4878AF" transform="translate(0,0)"/>
<path d="" fill="#467DB5" transform="translate(0,0)"/>
<path d="" fill="#497BAD" transform="translate(0,0)"/>
<path d="" fill="#4C7BB0" transform="translate(0,0)"/>
<path d="" fill="#525252" transform="translate(0,0)"/>
<path d="" fill="#4E6F90" transform="translate(0,0)"/>
<path d="" fill="#4D7EB1" transform="translate(0,0)"/>
<path d="" fill="#487AAE" transform="translate(0,0)"/>
<path d="" fill="#497AAC" transform="translate(0,0)"/>
<path d="" fill="#477CB4" transform="translate(0,0)"/>
<path d="" fill="#4B7DAD" transform="translate(0,0)"/>
<path d="" fill="#4F504F" transform="translate(0,0)"/>
<path d="" fill="#457DB1" transform="translate(0,0)"/>
<path d="" fill="#4979A8" transform="translate(0,0)"/>
<path d="" fill="#4A7CAC" transform="translate(0,0)"/>
<path d="" fill="#4B7BAD" transform="translate(0,0)"/>
<path d="" fill="#497AAC" transform="translate(0,0)"/>
<path d="" fill="#487EB5" transform="translate(0,0)"/>
<path d="" fill="#4776AA" transform="translate(0,0)"/>
<path d="" fill="#4B565C" transform="translate(0,0)"/>
<path d="" fill="#497EB3" transform="translate(0,0)"/>
<path d="" fill="#457DB4" transform="translate(0,0)"/>
<path d="" fill="#4E5F6F" transform="translate(0,0)"/>
<path d="" fill="#477DB3" transform="translate(0,0)"/>
<path d="" fill="#457AB1" transform="translate(0,0)"/>
<path d="" fill="#477AAF" transform="translate(0,0)"/>
<path d="" fill="#516981" transform="translate(0,0)"/>
<path d="" fill="#4A7CB0" transform="translate(0,0)"/>
<path d="" fill="#4978AF" transform="translate(0,0)"/>
<path d="" fill="#497AAC" transform="translate(0,0)"/>
<path d="" fill="#4B7AAA" transform="translate(0,0)"/>
<path d="" fill="#4E7AA7" transform="translate(0,0)"/>
<path d="" fill="#4D5155" transform="translate(0,0)"/>
<path d="" fill="#4B7AA7" transform="translate(0,0)"/>
<path d="" fill="#4F5E6F" transform="translate(0,0)"/>
<path d="" fill="#4D4E4F" transform="translate(0,0)"/>
<path d="" fill="#4E565C" transform="translate(0,0)"/>
<path d="" fill="#4D5053" transform="translate(0,0)"/>
<path d="" fill="#4E5455" transform="translate(0,0)"/>
<path d="" fill="#4C4C4A" transform="translate(0,0)"/>
<path d="" fill="#4D4D4F" transform="translate(0,0)"/>
<path d="" fill="#4B4D4C" transform="translate(0,0)"/>
<path d="" fill="#4C4C4E" transform="translate(0,0)"/>
<path d="" fill="#4C4C4C" transform="translate(0,0)"/>
<path d="" fill="#4B4E4E" transform="translate(0,0)"/>
<path d="" fill="#4B4C4B" transform="translate(0,0)"/>
<path d="" fill="#4C4C4A" transform="translate(0,0)"/>
<path d="" fill="#4A4A4A" transform="translate(0,0)"/>
<path d="" fill="#4D4C4E" transform="translate(0,0)"/>
<path d="" fill="#4E504D" transform="translate(0,0)"/>
<path d="" fill="#4A4A4B" transform="translate(0,0)"/>
<path d="" fill="#4C4D4D" transform="translate(0,0)"/>
</svg>
